<svg viewBox="0 0 381 381" xmlns="http://www.w3.org/2000/svg">
  <path d="M189.384 371C219.253 371 247.352 364.021 273.819 350.022C300.352 335.989 322.161 316.878 339.355 292.618C348.431 279.812 355.656 266.376 361.043 252.294C351.431 260.771 340.711 268.268 328.906 274.785C303.667 288.719 276.958 295.75 248.915 295.75C219.163 295.75 191.565 288.421 166.314 273.746C141.104 259.095 121.179 239.037 106.665 213.703C92.1362 188.343 84.8779 160.703 84.8779 130.969C84.8779 102.905 91.9821 76.3466 106.081 51.442C112.609 39.9117 120.084 29.4137 128.505 19.9661C114.526 25.2871 101.208 32.3942 88.5337 41.2972C64.4064 58.2451 45.295 79.873 31.139 106.297C17.0339 132.627 10 160.647 10 190.5C10 214.959 14.7543 238.305 24.2678 260.62C33.8522 283.102 46.6212 302.299 62.5354 318.33C78.4398 334.352 97.5015 347.166 119.839 356.74C142.032 366.251 165.187 371 189.384 371Z" stroke-width="30" />
</svg>

