<svg viewBox="0 0 401 401" fill="none" xmlns="http://www.w3.org/2000/svg">
  <path d="M398.8 371.25L268.95 241.4C289.1 215.35 300 183.5 300 150C300 109.9 284.35 72.3 256.05 43.95C227.75 15.6 190.05 0 150 0C109.95 0 72.25 15.65 43.95 43.95C15.6 72.25 0 109.9 0 150C0 190.05 15.65 227.75 43.95 256.05C72.25 284.4 109.9 300 150 300C183.5 300 215.3 289.1 241.35 269L371.2 398.8C371.581 399.181 372.033 399.483 372.53 399.689C373.028 399.896 373.561 400.002 374.1 400.002C374.639 400.002 375.172 399.896 375.67 399.689C376.167 399.483 376.619 399.181 377 398.8L398.8 377.05C399.181 376.669 399.483 376.217 399.689 375.72C399.896 375.222 400.002 374.689 400.002 374.15C400.002 373.611 399.896 373.078 399.689 372.58C399.483 372.083 399.181 371.631 398.8 371.25V371.25ZM229.2 229.2C208 250.35 179.9 262 150 262C120.1 262 92 250.35 70.8 229.2C49.65 208 38 179.9 38 150C38 120.1 49.65 91.95 70.8 70.8C92 49.65 120.1 38 150 38C179.9 38 208.05 49.6 229.2 70.8C250.35 92 262 120.1 262 150C262 179.9 250.35 208.05 229.2 229.2Z" />
</svg>
